<svg xmlns="http://www.w3.org/2000/svg" viewBox="0 0 32 32"><path fill="#5a57ff" d="M0 0h32v32H0z"/><path fill="#fff" d="M24.89 28.222c-.29 0-.574-.113-.786-.326l-2.548-2.547-1.993 1.992a1.113 1.113 0 0 1-1.571 0L16 25.35l-1.992 1.992a1.112 1.112 0 0 1-1.571 0l-1.992-1.992-2.548 2.547A1.11 1.11 0 0 1 6 27.111V13.778c0-5.514 4.486-10 10-10s10 4.486 10 10v13.333a1.11 1.11 0 0 1-1.11 1.11ZM16 22.667c.295 0 .577.117.786.325l1.992 1.992 1.993-1.992a1.11 1.11 0 0 1 1.57 0l1.437 1.437V13.778C23.778 9.489 20.288 6 16 6s-7.778 3.49-7.778 7.778v10.65l1.437-1.436a1.112 1.112 0 0 1 1.571 0l1.992 1.992 1.992-1.992c.209-.208.491-.325.786-.325Zm3.345-7.778c-.614 0-1.117-.497-1.117-1.111s.492-1.111 1.105-1.111h.012a1.111 1.111 0 0 1 0 2.222Zm-6.667 0c-.614 0-1.117-.497-1.117-1.111s.492-1.111 1.106-1.111h.01a1.111 1.111 0 0 1 0 2.222Z"/></svg>